<svg xmlns="http://www.w3.org/2000/svg" xmlns:xlink="http://www.w3.org/1999/xlink" width="396" height="780" viewBox="0 0 396 780">
  <defs>
    <style>
      .cls-1, .cls-13, .cls-3 {
        stroke: #fff;
      }

      .cls-1, .cls-13, .cls-2 {
        stroke-width: 2px;
      }

      .cls-2, .cls-5, .cls-6, .cls-7 {
        fill: #fff;
      }

      .cls-10, .cls-11, .cls-12, .cls-2, .cls-4, .cls-7, .cls-8, .cls-9 {
        stroke: #000;
      }

      .cls-4 {
        fill: url(#radial-gradient);
      }

      .cls-5 {
        font-size: 42px;
        font-family: Montserrat-SemiBold, Montserrat;
        font-weight: 600;
        letter-spacing: 0.108em;
      }

      .cls-6 {
        font-size: 18px;
        font-family: Montserrat-Medium, Montserrat;
        font-weight: 500;
      }

      .cls-8 {
        fill: #c9c9c9;
      }

      .cls-9 {
        fill: #888;
      }

      .cls-10 {
        fill: #666;
      }

      .cls-11 {
        fill: #333;
      }

      .cls-13, .cls-15 {
        fill: none;
      }

      .cls-14 {
        stroke: none;
      }
    </style>
    <radialGradient id="radial-gradient" cx="0.5" cy="0.5" r="1.291" gradientUnits="objectBoundingBox">
      <stop offset="0"/>
      <stop offset="1" stop-color="#fff"/>
    </radialGradient>
  </defs>
  <g id="Mobile" transform="translate(-784 -173)">
    <g id="Rectangle_13" data-name="Rectangle 13" class="cls-1" transform="translate(790 173)">
      <rect class="cls-14" width="384" height="780" rx="33"/>
      <rect class="cls-15" x="1" y="1" width="382" height="778" rx="32"/>
    </g>
    <g id="Rectangle_14" data-name="Rectangle 14" class="cls-1" transform="translate(803 186)">
      <rect class="cls-14" width="358" height="750" rx="19"/>
      <rect class="cls-15" x="1" y="1" width="356" height="748" rx="18"/>
    </g>
    <g id="Btn">
      <g id="Rectangle_15" data-name="Rectangle 15" class="cls-2" transform="translate(1172 336)">
        <path class="cls-14" d="M0,0H3A5,5,0,0,1,8,5V49a5,5,0,0,1-5,5H0a0,0,0,0,1,0,0V0A0,0,0,0,1,0,0Z"/>
        <path class="cls-15" d="M2,1H3A4,4,0,0,1,7,5V49a4,4,0,0,1-4,4H2a1,1,0,0,1-1-1V2A1,1,0,0,1,2,1Z"/>
      </g>
      <g id="Rectangle_16" data-name="Rectangle 16" class="cls-2" transform="translate(784 336)">
        <path class="cls-14" d="M5,0H8A0,0,0,0,1,8,0V32a0,0,0,0,1,0,0H5a5,5,0,0,1-5-5V5A5,5,0,0,1,5,0Z"/>
        <path class="cls-15" d="M5,1H6A1,1,0,0,1,7,2V30a1,1,0,0,1-1,1H5a4,4,0,0,1-4-4V5A4,4,0,0,1,5,1Z"/>
      </g>
      <g id="Rectangle_17" data-name="Rectangle 17" class="cls-2" transform="translate(784 374)">
        <path class="cls-14" d="M5,0H8A0,0,0,0,1,8,0V32a0,0,0,0,1,0,0H5a5,5,0,0,1-5-5V5A5,5,0,0,1,5,0Z"/>
        <path class="cls-15" d="M5,1H6A1,1,0,0,1,7,2V30a1,1,0,0,1-1,1H5a4,4,0,0,1-4-4V5A4,4,0,0,1,5,1Z"/>
      </g>
    </g>
    <g id="Camera" transform="translate(21 21)">
      <g id="Ellipse_12" data-name="Ellipse 12" class="cls-3" transform="translate(805 188)">
        <circle class="cls-14" cx="11.5" cy="11.5" r="11.5"/>
        <circle class="cls-15" cx="11.5" cy="11.5" r="11"/>
      </g>
      <g id="Ellipse_12-2" data-name="Ellipse 12" class="cls-4" transform="translate(807 190)">
        <circle class="cls-14" cx="9.5" cy="9.5" r="9.5"/>
        <circle class="cls-15" cx="9.5" cy="9.5" r="9"/>
      </g>
    </g>
    <text id="Design" class="cls-5" transform="translate(836 494.971)"><tspan x="0" y="0">Design</tspan></text>
    <text id="Creating_visual_experiences_that_are_truly_one_of_a_kind." data-name="Creating visual experiences thatare truly one of a kind." class="cls-6" transform="translate(836 543)"><tspan x="0" y="0">Creating visual experiences that</tspan><tspan x="0" y="22">are truly one of a kind.</tspan></text>
    <g id="Group_2" data-name="Group 2" transform="translate(40 -20)">
      <g id="Rectangle_18" data-name="Rectangle 18" class="cls-7" transform="translate(861 627)">
        <rect class="cls-14" width="163" height="28"/>
        <rect class="cls-15" x="0.5" y="0.5" width="162" height="27"/>
      </g>
      <g id="Rectangle_19" data-name="Rectangle 19" class="cls-7" transform="translate(861 627)">
        <rect class="cls-14" width="28" height="28"/>
        <rect class="cls-15" x="0.5" y="0.5" width="27" height="27"/>
      </g>
      <g id="Rectangle_20" data-name="Rectangle 20" class="cls-8" transform="translate(888 627)">
        <rect class="cls-14" width="28" height="28"/>
        <rect class="cls-15" x="0.5" y="0.5" width="27" height="27"/>
      </g>
      <g id="Rectangle_21" data-name="Rectangle 21" class="cls-9" transform="translate(915 627)">
        <rect class="cls-14" width="28" height="28"/>
        <rect class="cls-15" x="0.5" y="0.5" width="27" height="27"/>
      </g>
      <g id="Rectangle_22" data-name="Rectangle 22" class="cls-10" transform="translate(942 627)">
        <rect class="cls-14" width="28" height="28"/>
        <rect class="cls-15" x="0.5" y="0.5" width="27" height="27"/>
      </g>
      <g id="Rectangle_23" data-name="Rectangle 23" class="cls-11" transform="translate(969 627)">
        <rect class="cls-14" width="28" height="28"/>
        <rect class="cls-15" x="0.5" y="0.5" width="27" height="27"/>
      </g>
      <g id="Rectangle_24" data-name="Rectangle 24" class="cls-12" transform="translate(996 627)">
        <rect class="cls-14" width="28" height="28"/>
        <rect class="cls-15" x="0.5" y="0.5" width="27" height="27"/>
      </g>
    </g>
    <g id="Rectangle_53" data-name="Rectangle 53" class="cls-13" transform="translate(975 855)">
      <rect class="cls-14" width="15" height="35" rx="7.5"/>
      <rect class="cls-15" x="1" y="1" width="13" height="33" rx="6.5"/>
    </g>
  </g>
</svg>
