<svg xmlns="http://www.w3.org/2000/svg" width="1920" height="1080" viewBox="0 0 1920 1080">
  <g id="BG" transform="translate(0 30)" opacity="0.25">
    <g id="Rectangle_54" data-name="Rectangle 54" transform="translate(0 -30)" stroke="#707070" stroke-width="1">
      <rect width="1920" height="1080" stroke="none"/>
      <rect x="0.5" y="0.5" width="1919" height="1079" fill="none"/>
    </g>
    <path id="Polygon_218" data-name="Polygon 218" d="M4.5,0,9,8H0Z" transform="translate(160 11)" fill="#c3c3c3"/>
    <path id="Polygon_373" data-name="Polygon 373" d="M4.5,0,9,8H0Z" transform="translate(161 451)" fill="#c3c3c3"/>
    <path id="Polygon_307" data-name="Polygon 307" d="M4.5,0,9,8H0Z" transform="translate(160 231)" fill="#c3c3c3"/>
    <path id="Polygon_374" data-name="Polygon 374" d="M4.5,0,9,8H0Z" transform="translate(161 671)" fill="#c3c3c3"/>
    <path id="Polygon_417" data-name="Polygon 417" d="M4.5,0,9,8H0Z" transform="translate(161 891)" fill="#c3c3c3"/>
    <path id="Polygon_247" data-name="Polygon 247" d="M4.5,0,9,8H0Z" transform="translate(584 11)" fill="#c3c3c3"/>
    <path id="Polygon_359" data-name="Polygon 359" d="M4.5,0,9,8H0Z" transform="translate(585 451)" fill="#c3c3c3"/>
    <path id="Polygon_299" data-name="Polygon 299" d="M4.5,0,9,8H0Z" transform="translate(584 231)" fill="#c3c3c3"/>
    <path id="Polygon_360" data-name="Polygon 360" d="M4.5,0,9,8H0Z" transform="translate(585 671)" fill="#c3c3c3"/>
    <path id="Polygon_409" data-name="Polygon 409" d="M4.5,0,9,8H0Z" transform="translate(585 891)" fill="#c3c3c3"/>
    <path id="Polygon_255" data-name="Polygon 255" d="M4.5,0,9,8H0Z" transform="translate(1008 11)" fill="#c3c3c3"/>
    <path id="Polygon_341" data-name="Polygon 341" d="M4.5,0,9,8H0Z" transform="translate(1009 451)" fill="#c3c3c3"/>
    <path id="Polygon_283" data-name="Polygon 283" d="M4.5,0,9,8H0Z" transform="translate(1008 231)" fill="#c3c3c3"/>
    <path id="Polygon_337" data-name="Polygon 337" d="M4.5,0,9,8H0Z" transform="translate(1009 671)" fill="#c3c3c3"/>
    <path id="Polygon_402" data-name="Polygon 402" d="M4.5,0,9,8H0Z" transform="translate(1009 891)" fill="#c3c3c3"/>
    <path id="Polygon_263" data-name="Polygon 263" d="M4.5,0,9,8H0Z" transform="translate(1432 11)" fill="#c3c3c3"/>
    <path id="Polygon_342" data-name="Polygon 342" d="M4.5,0,9,8H0Z" transform="translate(1433 451)" fill="#c3c3c3"/>
    <path id="Polygon_284" data-name="Polygon 284" d="M4.5,0,9,8H0Z" transform="translate(1432 231)" fill="#c3c3c3"/>
    <path id="Polygon_316" data-name="Polygon 316" d="M4.5,0,9,8H0Z" transform="translate(1433 671)" fill="#c3c3c3"/>
    <path id="Polygon_394" data-name="Polygon 394" d="M4.5,0,9,8H0Z" transform="translate(1433 891)" fill="#c3c3c3"/>
    <path id="Polygon_242" data-name="Polygon 242" d="M4.5,0,9,8H0Z" transform="translate(372 11)" fill="#c3c3c3"/>
    <path id="Polygon_369" data-name="Polygon 369" d="M4.5,0,9,8H0Z" transform="translate(373 451)" fill="#c3c3c3"/>
    <path id="Polygon_303" data-name="Polygon 303" d="M4.5,0,9,8H0Z" transform="translate(372 231)" fill="#c3c3c3"/>
    <path id="Polygon_370" data-name="Polygon 370" d="M4.5,0,9,8H0Z" transform="translate(373 671)" fill="#c3c3c3"/>
    <path id="Polygon_413" data-name="Polygon 413" d="M4.5,0,9,8H0Z" transform="translate(373 891)" fill="#c3c3c3"/>
    <path id="Polygon_248" data-name="Polygon 248" d="M4.5,0,9,8H0Z" transform="translate(796 11)" fill="#c3c3c3"/>
    <path id="Polygon_353" data-name="Polygon 353" d="M4.5,0,9,8H0Z" transform="translate(797 451)" fill="#c3c3c3"/>
    <path id="Polygon_295" data-name="Polygon 295" d="M4.5,0,9,8H0Z" transform="translate(796 231)" fill="#c3c3c3"/>
    <path id="Polygon_354" data-name="Polygon 354" d="M4.5,0,9,8H0Z" transform="translate(797 671)" fill="#c3c3c3"/>
    <path id="Polygon_404" data-name="Polygon 404" d="M4.5,0,9,8H0Z" transform="translate(797 891)" fill="#c3c3c3"/>
    <path id="Polygon_256" data-name="Polygon 256" d="M4.5,0,9,8H0Z" transform="translate(1220 11)" fill="#c3c3c3"/>
    <path id="Polygon_343" data-name="Polygon 343" d="M4.5,0,9,8H0Z" transform="translate(1221 451)" fill="#c3c3c3"/>
    <path id="Polygon_285" data-name="Polygon 285" d="M4.5,0,9,8H0Z" transform="translate(1220 231)" fill="#c3c3c3"/>
    <path id="Polygon_322" data-name="Polygon 322" d="M4.5,0,9,8H0Z" transform="translate(1221 671)" fill="#c3c3c3"/>
    <path id="Polygon_397" data-name="Polygon 397" d="M4.5,0,9,8H0Z" transform="translate(1221 891)" fill="#c3c3c3"/>
    <path id="Polygon_264" data-name="Polygon 264" d="M4.5,0,9,8H0Z" transform="translate(1644 11)" fill="#c3c3c3"/>
    <path id="Polygon_344" data-name="Polygon 344" d="M4.5,0,9,8H0Z" transform="translate(1645 451)" fill="#c3c3c3"/>
    <path id="Polygon_286" data-name="Polygon 286" d="M4.5,0,9,8H0Z" transform="translate(1644 231)" fill="#c3c3c3"/>
    <path id="Polygon_317" data-name="Polygon 317" d="M4.5,0,9,8H0Z" transform="translate(1645 671)" fill="#c3c3c3"/>
    <path id="Polygon_387" data-name="Polygon 387" d="M4.5,0,9,8H0Z" transform="translate(1645 891)" fill="#c3c3c3"/>
    <path id="Polygon_271" data-name="Polygon 271" d="M4.5,0,9,8H0Z" transform="translate(1856 11)" fill="#c3c3c3"/>
    <path id="Polygon_345" data-name="Polygon 345" d="M4.5,0,9,8H0Z" transform="translate(1857 451)" fill="#c3c3c3"/>
    <path id="Polygon_287" data-name="Polygon 287" d="M4.5,0,9,8H0Z" transform="translate(1856 231)" fill="#c3c3c3"/>
    <path id="Polygon_318" data-name="Polygon 318" d="M4.5,0,9,8H0Z" transform="translate(1857 671)" fill="#c3c3c3"/>
    <path id="Polygon_388" data-name="Polygon 388" d="M4.5,0,9,8H0Z" transform="translate(1857 891)" fill="#c3c3c3"/>
    <path id="Polygon_230" data-name="Polygon 230" d="M4.5,0,9,8H0Z" transform="translate(54 11)" fill="#c3c3c3"/>
    <path id="Polygon_379" data-name="Polygon 379" d="M4.5,0,9,8H0Z" transform="translate(55 451)" fill="#c3c3c3"/>
    <path id="Polygon_309" data-name="Polygon 309" d="M4.5,0,9,8H0Z" transform="translate(54 231)" fill="#c3c3c3"/>
    <path id="Polygon_380" data-name="Polygon 380" d="M4.5,0,9,8H0Z" transform="translate(55 671)" fill="#c3c3c3"/>
    <path id="Polygon_420" data-name="Polygon 420" d="M4.5,0,9,8H0Z" transform="translate(55 891)" fill="#c3c3c3"/>
    <path id="Polygon_251" data-name="Polygon 251" d="M4.5,0,9,8H0Z" transform="translate(478 11)" fill="#c3c3c3"/>
    <path id="Polygon_365" data-name="Polygon 365" d="M4.5,0,9,8H0Z" transform="translate(479 451)" fill="#c3c3c3"/>
    <path id="Polygon_301" data-name="Polygon 301" d="M4.5,0,9,8H0Z" transform="translate(478 231)" fill="#c3c3c3"/>
    <path id="Polygon_366" data-name="Polygon 366" d="M4.5,0,9,8H0Z" transform="translate(479 671)" fill="#c3c3c3"/>
    <path id="Polygon_411" data-name="Polygon 411" d="M4.5,0,9,8H0Z" transform="translate(479 891)" fill="#c3c3c3"/>
    <path id="Polygon_259" data-name="Polygon 259" d="M4.5,0,9,8H0Z" transform="translate(902 11)" fill="#c3c3c3"/>
    <path id="Polygon_346" data-name="Polygon 346" d="M4.5,0,9,8H0Z" transform="translate(903 451)" fill="#c3c3c3"/>
    <path id="Polygon_293" data-name="Polygon 293" d="M4.5,0,9,8H0Z" transform="translate(902 231)" fill="#c3c3c3"/>
    <path id="Polygon_340" data-name="Polygon 340" d="M4.5,0,9,8H0Z" transform="translate(903 671)" fill="#c3c3c3"/>
    <path id="Polygon_405" data-name="Polygon 405" d="M4.5,0,9,8H0Z" transform="translate(903 891)" fill="#c3c3c3"/>
    <path id="Polygon_267" data-name="Polygon 267" d="M4.5,0,9,8H0Z" transform="translate(1326 11)" fill="#c3c3c3"/>
    <path id="Polygon_347" data-name="Polygon 347" d="M4.5,0,9,8H0Z" transform="translate(1327 451)" fill="#c3c3c3"/>
    <path id="Polygon_288" data-name="Polygon 288" d="M4.5,0,9,8H0Z" transform="translate(1326 231)" fill="#c3c3c3"/>
    <path id="Polygon_323" data-name="Polygon 323" d="M4.5,0,9,8H0Z" transform="translate(1327 671)" fill="#c3c3c3"/>
    <path id="Polygon_395" data-name="Polygon 395" d="M4.5,0,9,8H0Z" transform="translate(1327 891)" fill="#c3c3c3"/>
    <path id="Polygon_241" data-name="Polygon 241" d="M4.5,0,9,8H0Z" transform="translate(266 11)" fill="#c3c3c3"/>
    <path id="Polygon_375" data-name="Polygon 375" d="M4.5,0,9,8H0Z" transform="translate(267 451)" fill="#c3c3c3"/>
    <path id="Polygon_305" data-name="Polygon 305" d="M4.5,0,9,8H0Z" transform="translate(266 231)" fill="#c3c3c3"/>
    <path id="Polygon_376" data-name="Polygon 376" d="M4.5,0,9,8H0Z" transform="translate(267 671)" fill="#c3c3c3"/>
    <path id="Polygon_416" data-name="Polygon 416" d="M4.5,0,9,8H0Z" transform="translate(267 891)" fill="#c3c3c3"/>
    <path id="Polygon_249" data-name="Polygon 249" d="M4.5,0,9,8H0Z" transform="translate(690 11)" fill="#c3c3c3"/>
    <path id="Polygon_357" data-name="Polygon 357" d="M4.5,0,9,8H0Z" transform="translate(691 451)" fill="#c3c3c3"/>
    <path id="Polygon_297" data-name="Polygon 297" d="M4.5,0,9,8H0Z" transform="translate(690 231)" fill="#c3c3c3"/>
    <path id="Polygon_358" data-name="Polygon 358" d="M4.5,0,9,8H0Z" transform="translate(691 671)" fill="#c3c3c3"/>
    <path id="Polygon_407" data-name="Polygon 407" d="M4.5,0,9,8H0Z" transform="translate(691 891)" fill="#c3c3c3"/>
    <path id="Polygon_257" data-name="Polygon 257" d="M4.5,0,9,8H0Z" transform="translate(1114 11)" fill="#c3c3c3"/>
    <path id="Polygon_348" data-name="Polygon 348" d="M4.5,0,9,8H0Z" transform="translate(1115 451)" fill="#c3c3c3"/>
    <path id="Polygon_289" data-name="Polygon 289" d="M4.5,0,9,8H0Z" transform="translate(1114 231)" fill="#c3c3c3"/>
    <path id="Polygon_324" data-name="Polygon 324" d="M4.5,0,9,8H0Z" transform="translate(1115 671)" fill="#c3c3c3"/>
    <path id="Polygon_399" data-name="Polygon 399" d="M4.5,0,9,8H0Z" transform="translate(1115 891)" fill="#c3c3c3"/>
    <path id="Polygon_265" data-name="Polygon 265" d="M4.5,0,9,8H0Z" transform="translate(1538 11)" fill="#c3c3c3"/>
    <path id="Polygon_349" data-name="Polygon 349" d="M4.5,0,9,8H0Z" transform="translate(1539 451)" fill="#c3c3c3"/>
    <path id="Polygon_290" data-name="Polygon 290" d="M4.5,0,9,8H0Z" transform="translate(1538 231)" fill="#c3c3c3"/>
    <path id="Polygon_319" data-name="Polygon 319" d="M4.5,0,9,8H0Z" transform="translate(1539 671)" fill="#c3c3c3"/>
    <path id="Polygon_392" data-name="Polygon 392" d="M4.5,0,9,8H0Z" transform="translate(1539 891)" fill="#c3c3c3"/>
    <path id="Polygon_272" data-name="Polygon 272" d="M4.5,0,9,8H0Z" transform="translate(1750 11)" fill="#c3c3c3"/>
    <path id="Polygon_350" data-name="Polygon 350" d="M4.5,0,9,8H0Z" transform="translate(1751 451)" fill="#c3c3c3"/>
    <path id="Polygon_291" data-name="Polygon 291" d="M4.5,0,9,8H0Z" transform="translate(1750 231)" fill="#c3c3c3"/>
    <path id="Polygon_320" data-name="Polygon 320" d="M4.5,0,9,8H0Z" transform="translate(1751 671)" fill="#c3c3c3"/>
    <path id="Polygon_389" data-name="Polygon 389" d="M4.5,0,9,8H0Z" transform="translate(1751 891)" fill="#c3c3c3"/>
    <path id="Polygon_239" data-name="Polygon 239" d="M4.5,0,9,8H0Z" transform="translate(107 121)" fill="#c3c3c3"/>
    <path id="Polygon_422" data-name="Polygon 422" d="M4.5,0,9,8H0Z" transform="translate(1 121)" fill="#c3c3c3"/>
    <path id="Polygon_381" data-name="Polygon 381" d="M4.5,0,9,8H0Z" transform="translate(108 561)" fill="#c3c3c3"/>
    <path id="Polygon_308" data-name="Polygon 308" d="M4.5,0,9,8H0Z" transform="translate(107 341)" fill="#c3c3c3"/>
    <path id="Polygon_423" data-name="Polygon 423" d="M4.5,0,9,8H0Z" transform="translate(1 341)" fill="#c3c3c3"/>
    <path id="Polygon_382" data-name="Polygon 382" d="M4.5,0,9,8H0Z" transform="translate(108 781)" fill="#c3c3c3"/>
    <path id="Polygon_419" data-name="Polygon 419" d="M4.5,0,9,8H0Z" transform="translate(108 1001)" fill="#c3c3c3"/>
    <path id="Polygon_250" data-name="Polygon 250" d="M4.5,0,9,8H0Z" transform="translate(531 121)" fill="#c3c3c3"/>
    <path id="Polygon_363" data-name="Polygon 363" d="M4.5,0,9,8H0Z" transform="translate(532 561)" fill="#c3c3c3"/>
    <path id="Polygon_300" data-name="Polygon 300" d="M4.5,0,9,8H0Z" transform="translate(531 341)" fill="#c3c3c3"/>
    <path id="Polygon_364" data-name="Polygon 364" d="M4.5,0,9,8H0Z" transform="translate(532 781)" fill="#c3c3c3"/>
    <path id="Polygon_412" data-name="Polygon 412" d="M4.5,0,9,8H0Z" transform="translate(532 1001)" fill="#c3c3c3"/>
    <path id="Polygon_258" data-name="Polygon 258" d="M4.5,0,9,8H0Z" transform="translate(955 121)" fill="#c3c3c3"/>
    <path id="Polygon_338" data-name="Polygon 338" d="M4.5,0,9,8H0Z" transform="translate(956 561)" fill="#c3c3c3"/>
    <path id="Polygon_292" data-name="Polygon 292" d="M4.5,0,9,8H0Z" transform="translate(955 341)" fill="#c3c3c3"/>
    <path id="Polygon_339" data-name="Polygon 339" d="M4.5,0,9,8H0Z" transform="translate(956 781)" fill="#c3c3c3"/>
    <path id="Polygon_403" data-name="Polygon 403" d="M4.5,0,9,8H0Z" transform="translate(956 1001)" fill="#c3c3c3"/>
    <path id="Polygon_266" data-name="Polygon 266" d="M4.5,0,9,8H0Z" transform="translate(1379 121)" fill="#c3c3c3"/>
    <path id="Polygon_325" data-name="Polygon 325" d="M4.5,0,9,8H0Z" transform="translate(1380 561)" fill="#c3c3c3"/>
    <path id="Polygon_279" data-name="Polygon 279" d="M4.5,0,9,8H0Z" transform="translate(1379 341)" fill="#c3c3c3"/>
    <path id="Polygon_321" data-name="Polygon 321" d="M4.5,0,9,8H0Z" transform="translate(1380 781)" fill="#c3c3c3"/>
    <path id="Polygon_396" data-name="Polygon 396" d="M4.5,0,9,8H0Z" transform="translate(1380 1001)" fill="#c3c3c3"/>
    <path id="Polygon_383" data-name="Polygon 383" d="M4.5,0,9,8H0Z" transform="translate(2 561)" fill="#c3c3c3"/>
    <path id="Polygon_384" data-name="Polygon 384" d="M4.5,0,9,8H0Z" transform="translate(2 781)" fill="#c3c3c3"/>
    <path id="Polygon_421" data-name="Polygon 421" d="M4.5,0,9,8H0Z" transform="translate(2 1001)" fill="#c3c3c3"/>
    <path id="Polygon_252" data-name="Polygon 252" d="M4.5,0,9,8H0Z" transform="translate(425 121)" fill="#c3c3c3"/>
    <path id="Polygon_367" data-name="Polygon 367" d="M4.5,0,9,8H0Z" transform="translate(426 561)" fill="#c3c3c3"/>
    <path id="Polygon_302" data-name="Polygon 302" d="M4.5,0,9,8H0Z" transform="translate(425 341)" fill="#c3c3c3"/>
    <path id="Polygon_368" data-name="Polygon 368" d="M4.5,0,9,8H0Z" transform="translate(426 781)" fill="#c3c3c3"/>
    <path id="Polygon_414" data-name="Polygon 414" d="M4.5,0,9,8H0Z" transform="translate(426 1001)" fill="#c3c3c3"/>
    <path id="Polygon_260" data-name="Polygon 260" d="M4.5,0,9,8H0Z" transform="translate(849 121)" fill="#c3c3c3"/>
    <path id="Polygon_351" data-name="Polygon 351" d="M4.5,0,9,8H0Z" transform="translate(850 561)" fill="#c3c3c3"/>
    <path id="Polygon_294" data-name="Polygon 294" d="M4.5,0,9,8H0Z" transform="translate(849 341)" fill="#c3c3c3"/>
    <path id="Polygon_352" data-name="Polygon 352" d="M4.5,0,9,8H0Z" transform="translate(850 781)" fill="#c3c3c3"/>
    <path id="Polygon_406" data-name="Polygon 406" d="M4.5,0,9,8H0Z" transform="translate(850 1001)" fill="#c3c3c3"/>
    <path id="Polygon_268" data-name="Polygon 268" d="M4.5,0,9,8H0Z" transform="translate(1273 121)" fill="#c3c3c3"/>
    <path id="Polygon_326" data-name="Polygon 326" d="M4.5,0,9,8H0Z" transform="translate(1274 561)" fill="#c3c3c3"/>
    <path id="Polygon_280" data-name="Polygon 280" d="M4.5,0,9,8H0Z" transform="translate(1273 341)" fill="#c3c3c3"/>
    <path id="Polygon_327" data-name="Polygon 327" d="M4.5,0,9,8H0Z" transform="translate(1274 781)" fill="#c3c3c3"/>
    <path id="Polygon_398" data-name="Polygon 398" d="M4.5,0,9,8H0Z" transform="translate(1274 1001)" fill="#c3c3c3"/>
    <path id="Polygon_240" data-name="Polygon 240" d="M4.5,0,9,8H0Z" transform="translate(319 121)" fill="#c3c3c3"/>
    <path id="Polygon_371" data-name="Polygon 371" d="M4.5,0,9,8H0Z" transform="translate(320 561)" fill="#c3c3c3"/>
    <path id="Polygon_304" data-name="Polygon 304" d="M4.5,0,9,8H0Z" transform="translate(319 341)" fill="#c3c3c3"/>
    <path id="Polygon_372" data-name="Polygon 372" d="M4.5,0,9,8H0Z" transform="translate(320 781)" fill="#c3c3c3"/>
    <path id="Polygon_415" data-name="Polygon 415" d="M4.5,0,9,8H0Z" transform="translate(320 1001)" fill="#c3c3c3"/>
    <path id="Polygon_245" data-name="Polygon 245" d="M4.5,0,9,8H0Z" transform="translate(743 121)" fill="#c3c3c3"/>
    <path id="Polygon_355" data-name="Polygon 355" d="M4.5,0,9,8H0Z" transform="translate(744 561)" fill="#c3c3c3"/>
    <path id="Polygon_296" data-name="Polygon 296" d="M4.5,0,9,8H0Z" transform="translate(743 341)" fill="#c3c3c3"/>
    <path id="Polygon_356" data-name="Polygon 356" d="M4.5,0,9,8H0Z" transform="translate(744 781)" fill="#c3c3c3"/>
    <path id="Polygon_408" data-name="Polygon 408" d="M4.5,0,9,8H0Z" transform="translate(744 1001)" fill="#c3c3c3"/>
    <path id="Polygon_253" data-name="Polygon 253" d="M4.5,0,9,8H0Z" transform="translate(1167 121)" fill="#c3c3c3"/>
    <path id="Polygon_328" data-name="Polygon 328" d="M4.5,0,9,8H0Z" transform="translate(1168 561)" fill="#c3c3c3"/>
    <path id="Polygon_281" data-name="Polygon 281" d="M4.5,0,9,8H0Z" transform="translate(1167 341)" fill="#c3c3c3"/>
    <path id="Polygon_329" data-name="Polygon 329" d="M4.5,0,9,8H0Z" transform="translate(1168 781)" fill="#c3c3c3"/>
    <path id="Polygon_400" data-name="Polygon 400" d="M4.5,0,9,8H0Z" transform="translate(1168 1001)" fill="#c3c3c3"/>
    <path id="Polygon_261" data-name="Polygon 261" d="M4.5,0,9,8H0Z" transform="translate(1591 121)" fill="#c3c3c3"/>
    <path id="Polygon_330" data-name="Polygon 330" d="M4.5,0,9,8H0Z" transform="translate(1592 561)" fill="#c3c3c3"/>
    <path id="Polygon_274" data-name="Polygon 274" d="M4.5,0,9,8H0Z" transform="translate(1591 341)" fill="#c3c3c3"/>
    <path id="Polygon_311" data-name="Polygon 311" d="M4.5,0,9,8H0Z" transform="translate(1592 781)" fill="#c3c3c3"/>
    <path id="Polygon_390" data-name="Polygon 390" d="M4.5,0,9,8H0Z" transform="translate(1592 1001)" fill="#c3c3c3"/>
    <path id="Polygon_270" data-name="Polygon 270" d="M4.5,0,9,8H0Z" transform="translate(1803 121)" fill="#c3c3c3"/>
    <path id="Polygon_331" data-name="Polygon 331" d="M4.5,0,9,8H0Z" transform="translate(1804 561)" fill="#c3c3c3"/>
    <path id="Polygon_275" data-name="Polygon 275" d="M4.5,0,9,8H0Z" transform="translate(1803 341)" fill="#c3c3c3"/>
    <path id="Polygon_312" data-name="Polygon 312" d="M4.5,0,9,8H0Z" transform="translate(1804 781)" fill="#c3c3c3"/>
    <path id="Polygon_386" data-name="Polygon 386" d="M4.5,0,9,8H0Z" transform="translate(1804 1001)" fill="#c3c3c3"/>
    <path id="Polygon_273" data-name="Polygon 273" d="M4.5,0,9,8H0Z" transform="translate(1909 121)" fill="#c3c3c3"/>
    <path id="Polygon_332" data-name="Polygon 332" d="M4.5,0,9,8H0Z" transform="translate(1910 561)" fill="#c3c3c3"/>
    <path id="Polygon_276" data-name="Polygon 276" d="M4.5,0,9,8H0Z" transform="translate(1909 341)" fill="#c3c3c3"/>
    <path id="Polygon_313" data-name="Polygon 313" d="M4.5,0,9,8H0Z" transform="translate(1910 781)" fill="#c3c3c3"/>
    <path id="Polygon_385" data-name="Polygon 385" d="M4.5,0,9,8H0Z" transform="translate(1910 1001)" fill="#c3c3c3"/>
    <path id="Polygon_243" data-name="Polygon 243" d="M4.5,0,9,8H0Z" transform="translate(213 121)" fill="#c3c3c3"/>
    <path id="Polygon_377" data-name="Polygon 377" d="M4.5,0,9,8H0Z" transform="translate(214 561)" fill="#c3c3c3"/>
    <path id="Polygon_306" data-name="Polygon 306" d="M4.5,0,9,8H0Z" transform="translate(213 341)" fill="#c3c3c3"/>
    <path id="Polygon_378" data-name="Polygon 378" d="M4.5,0,9,8H0Z" transform="translate(214 781)" fill="#c3c3c3"/>
    <path id="Polygon_418" data-name="Polygon 418" d="M4.5,0,9,8H0Z" transform="translate(214 1001)" fill="#c3c3c3"/>
    <path id="Polygon_246" data-name="Polygon 246" d="M4.5,0,9,8H0Z" transform="translate(637 121)" fill="#c3c3c3"/>
    <path id="Polygon_361" data-name="Polygon 361" d="M4.5,0,9,8H0Z" transform="translate(638 561)" fill="#c3c3c3"/>
    <path id="Polygon_298" data-name="Polygon 298" d="M4.5,0,9,8H0Z" transform="translate(637 341)" fill="#c3c3c3"/>
    <path id="Polygon_362" data-name="Polygon 362" d="M4.5,0,9,8H0Z" transform="translate(638 781)" fill="#c3c3c3"/>
    <path id="Polygon_410" data-name="Polygon 410" d="M4.5,0,9,8H0Z" transform="translate(638 1001)" fill="#c3c3c3"/>
    <path id="Polygon_254" data-name="Polygon 254" d="M4.5,0,9,8H0Z" transform="translate(1061 121)" fill="#c3c3c3"/>
    <path id="Polygon_335" data-name="Polygon 335" d="M4.5,0,9,8H0Z" transform="translate(1062 561)" fill="#c3c3c3"/>
    <path id="Polygon_282" data-name="Polygon 282" d="M4.5,0,9,8H0Z" transform="translate(1061 341)" fill="#c3c3c3"/>
    <path id="Polygon_336" data-name="Polygon 336" d="M4.5,0,9,8H0Z" transform="translate(1062 781)" fill="#c3c3c3"/>
    <path id="Polygon_401" data-name="Polygon 401" d="M4.5,0,9,8H0Z" transform="translate(1062 1001)" fill="#c3c3c3"/>
    <path id="Polygon_262" data-name="Polygon 262" d="M4.5,0,9,8H0Z" transform="translate(1485 121)" fill="#c3c3c3"/>
    <path id="Polygon_333" data-name="Polygon 333" d="M4.5,0,9,8H0Z" transform="translate(1486 561)" fill="#c3c3c3"/>
    <path id="Polygon_277" data-name="Polygon 277" d="M4.5,0,9,8H0Z" transform="translate(1485 341)" fill="#c3c3c3"/>
    <path id="Polygon_315" data-name="Polygon 315" d="M4.5,0,9,8H0Z" transform="translate(1486 781)" fill="#c3c3c3"/>
    <path id="Polygon_393" data-name="Polygon 393" d="M4.5,0,9,8H0Z" transform="translate(1486 1001)" fill="#c3c3c3"/>
    <path id="Polygon_269" data-name="Polygon 269" d="M4.5,0,9,8H0Z" transform="translate(1697 121)" fill="#c3c3c3"/>
    <path id="Polygon_334" data-name="Polygon 334" d="M4.5,0,9,8H0Z" transform="translate(1698 561)" fill="#c3c3c3"/>
    <path id="Polygon_278" data-name="Polygon 278" d="M4.5,0,9,8H0Z" transform="translate(1697 341)" fill="#c3c3c3"/>
    <path id="Polygon_314" data-name="Polygon 314" d="M4.5,0,9,8H0Z" transform="translate(1698 781)" fill="#c3c3c3"/>
    <path id="Polygon_391" data-name="Polygon 391" d="M4.5,0,9,8H0Z" transform="translate(1698 1001)" fill="#c3c3c3"/>
  </g>
</svg>
