<svg xmlns="http://www.w3.org/2000/svg" width="390.482" height="390.187" viewBox="0 0 390.482 390.187">
  <defs>
    <style>
      .cls-1 {
        fill: #fff;
      }

      .cls-2 {
        stroke: #fff;
        stroke-width: 5px;
      }
    </style>
  </defs>
  <g id="Gear1" transform="translate(-238.081 -215.378)">
    <g id="Group_3" data-name="Group 3" transform="translate(277.183 215.378)">
      <path id="Path_13" data-name="Path 13" class="cls-1" d="M283.839,304.156a1.842,1.842,0,0,1-1.467-2.952c1.49-1.969,3.035-3.933,4.594-5.84a1.84,1.84,0,1,1,2.849,2.33c-1.528,1.87-3.044,3.8-4.505,5.732A1.841,1.841,0,0,1,283.839,304.156Z" transform="translate(-282 -224.077)"/>
      <path id="Path_14" data-name="Path 14" class="cls-1" d="M630.536,374.256a1.843,1.843,0,0,1-1.8-1.481c-.972-4.881-2.152-9.785-3.506-14.573a1.841,1.841,0,0,1,3.543-1c1.38,4.882,2.583,9.881,3.575,14.857a1.84,1.84,0,0,1-1.447,2.164A1.732,1.732,0,0,1,630.536,374.256ZM618.81,336.364a1.842,1.842,0,0,1-1.694-1.118c-1.949-4.565-4.11-9.122-6.423-13.544a1.842,1.842,0,0,1,3.263-1.708c2.357,4.509,4.56,9.154,6.547,13.807a1.841,1.841,0,0,1-1.693,2.564Zm-19.22-34.7a1.835,1.835,0,0,1-1.514-.791c-2.845-4.1-5.88-8.124-9.022-11.97a1.841,1.841,0,0,1,2.851-2.33c3.2,3.921,6.3,8.025,9.194,12.2a1.841,1.841,0,0,1-1.51,2.891ZM307.759,271.679a1.841,1.841,0,0,1-1.264-3.178c3.681-3.478,7.553-6.861,11.5-10.052a1.841,1.841,0,0,1,2.312,2.866c-3.878,3.129-7.675,6.449-11.287,9.86A1.837,1.837,0,0,1,307.759,271.679Zm266-.108a1.83,1.83,0,0,1-1.266-.506c-3.607-3.419-7.4-6.738-11.27-9.862a1.842,1.842,0,0,1,2.314-2.866c3.945,3.187,7.81,6.571,11.489,10.057a1.842,1.842,0,0,1-1.267,3.177ZM339.229,247.52a1.841,1.841,0,0,1-.97-3.407c4.328-2.673,8.8-5.2,13.3-7.52a1.841,1.841,0,0,1,1.687,3.272c-4.412,2.274-8.8,4.757-13.051,7.38A1.826,1.826,0,0,1,339.229,247.52Zm203.08-.1a1.834,1.834,0,0,1-.963-.273c-4.222-2.6-8.615-5.071-13.058-7.348a1.84,1.84,0,1,1,1.679-3.275c4.527,2.317,9.005,4.838,13.31,7.488a1.841,1.841,0,0,1-.968,3.409Zm-167.383-17.2a1.842,1.842,0,0,1-.629-3.573c4.771-1.731,9.669-3.3,14.557-4.645a1.841,1.841,0,1,1,.979,3.549c-4.793,1.325-9.6,2.858-14.279,4.557A1.838,1.838,0,0,1,374.926,230.22Zm131.656,0a1.807,1.807,0,0,1-.624-.11c-4.68-1.686-9.484-3.212-14.285-4.533a1.84,1.84,0,1,1,.976-3.549c4.893,1.344,9.791,2.9,14.558,4.62a1.841,1.841,0,0,1-.625,3.573ZM468.1,220.631a1.9,1.9,0,0,1-.264-.018c-4.918-.707-9.935-1.224-14.909-1.545a1.842,1.842,0,0,1-1.72-1.956,1.869,1.869,0,0,1,1.955-1.718c5.07.325,10.183.856,15.2,1.573a1.841,1.841,0,0,1-.259,3.664Zm-54.695-.03a1.842,1.842,0,0,1-.257-3.665c5.023-.715,10.137-1.24,15.2-1.558A1.863,1.863,0,0,1,430.3,217.1a1.841,1.841,0,0,1-1.721,1.952c-4.966.313-9.983.827-14.911,1.53A1.87,1.87,0,0,1,413.406,220.6Z" transform="translate(-284.624 -215.378)"/>
      <path id="Path_15" data-name="Path 15" class="cls-1" d="M674.33,428.183a1.84,1.84,0,0,1-1.839-1.785c-.074-2.414-.2-4.863-.361-7.279a1.841,1.841,0,0,1,1.71-1.963,1.879,1.879,0,0,1,1.962,1.712c.169,2.461.293,4.958.368,7.419a1.842,1.842,0,0,1-1.784,1.9Z" transform="translate(-324.792 -237.51)"/>
    </g>
    <g id="Group_4" data-name="Group 4" transform="translate(238.081 405.541)">
      <path id="Path_16" data-name="Path 16" class="cls-1" d="M613.216,586.5a1.839,1.839,0,0,1-1.32-3.122c1.7-1.748,3.372-3.54,4.978-5.328a1.841,1.841,0,1,1,2.738,2.463c-1.637,1.822-3.345,3.648-5.075,5.429A1.833,1.833,0,0,1,613.216,586.5Z" transform="translate(-279.026 -445.254)"/>
      <path id="Path_17" data-name="Path 17" class="cls-1" d="M433.809,632.878l-1.668-.007a1.841,1.841,0,0,1,.018-3.681h.018l1.632.007c4.347,0,8.758-.151,13.11-.45a1.871,1.871,0,0,1,1.962,1.711,1.842,1.842,0,0,1-1.71,1.963C442.735,632.723,438.24,632.878,433.809,632.878Zm-25.771-1.721a1.782,1.782,0,0,1-.247-.016c-4.942-.663-9.924-1.526-14.81-2.565a1.842,1.842,0,0,1,.768-3.6c4.793,1.021,9.682,1.87,14.531,2.519a1.841,1.841,0,0,1-.241,3.665Zm62.983-1.9a1.841,1.841,0,0,1-.353-3.648c4.809-.946,9.638-2.092,14.349-3.4a1.84,1.84,0,1,1,.989,3.545c-4.8,1.339-9.724,2.507-14.629,3.473A1.88,1.88,0,0,1,471.021,629.257Zm-100.954-7.135a1.817,1.817,0,0,1-.6-.1c-4.724-1.64-9.434-3.481-14-5.471a1.841,1.841,0,0,1,1.472-3.376c4.478,1.952,9.1,3.759,13.735,5.369a1.841,1.841,0,0,1-.6,3.58Zm138.292-4.256a1.841,1.841,0,0,1-.713-3.538c4.5-1.887,8.993-3.983,13.368-6.233a1.842,1.842,0,0,1,1.683,3.276c-4.459,2.29-9.043,4.428-13.625,6.352A1.816,1.816,0,0,1,508.359,617.866Zm-173.685-12.19a1.819,1.819,0,0,1-.937-.259c-4.285-2.546-8.528-5.295-12.611-8.169a1.84,1.84,0,1,1,2.119-3.009c4.006,2.819,8.169,5.516,12.373,8.015a1.841,1.841,0,0,1-.943,3.423Zm207.974-6.471a1.841,1.841,0,0,1-1.039-3.362c4.047-2.759,8.039-5.71,11.863-8.766a1.841,1.841,0,0,1,2.3,2.877c-3.9,3.114-7.964,6.12-12.088,8.932A1.843,1.843,0,0,1,542.648,599.205Zm-239.321-16.76a1.829,1.829,0,0,1-1.24-.482c-3.677-3.353-7.277-6.9-10.7-10.552a1.841,1.841,0,0,1,2.684-2.521c3.36,3.58,6.893,7.062,10.5,10.354a1.841,1.841,0,0,1-1.241,3.2Zm-26.016-29.086a1.838,1.838,0,0,1-1.49-.759c-2.309-3.173-4.557-6.466-6.684-9.791q-.859-1.343-1.692-2.693a1.841,1.841,0,0,1,3.134-1.935q.817,1.328,1.66,2.643c2.087,3.263,4.294,6.495,6.559,9.611a1.84,1.84,0,0,1-1.487,2.923Zm-19.707-33.7a1.841,1.841,0,0,1-1.676-1.076c-2.075-4.539-4-9.216-5.719-13.9a1.841,1.841,0,0,1,3.457-1.27c1.686,4.6,3.575,9.188,5.612,13.641a1.842,1.842,0,0,1-1.674,2.607ZM245.052,482.7a1.841,1.841,0,0,1-1.792-1.429c-1.116-4.861-2.055-9.833-2.792-14.774a1.841,1.841,0,1,1,3.642-.543c.723,4.848,1.644,9.726,2.739,14.493a1.841,1.841,0,0,1-1.383,2.205A1.786,1.786,0,0,1,245.052,482.7Z" transform="translate(-238.34 -432.854)"/>
      <path id="Path_18" data-name="Path 18" class="cls-1" d="M239.968,440.011a1.84,1.84,0,0,1-1.839-1.8c-.055-2.452-.063-4.951-.024-7.431a1.87,1.87,0,0,1,1.87-1.812,1.841,1.841,0,0,1,1.812,1.87c-.038,2.432-.03,4.884.022,7.29a1.839,1.839,0,0,1-1.8,1.882Z" transform="translate(-238.081 -428.969)"/>
    </g>
    <g id="Group_7" data-name="Group 7" transform="translate(286.188 260.995)">
      <path id="Path_19" data-name="Path 19" class="cls-2" d="M292.186,394.963a2.32,2.32,0,0,0,.977,2.512l23.631,15.491a123.09,123.09,0,0,0,5.727,39.463L304.3,474a2.323,2.323,0,0,0-.222,2.686L321.419,505.8a2.322,2.322,0,0,0,2.467,1.085l27.645-5.751A123.069,123.069,0,0,0,383.5,524.967l2.366,28.155a2.321,2.321,0,0,0,1.743,2.056l32.853,8.326a2.318,2.318,0,0,0,2.512-.978L438.465,538.9a123.09,123.09,0,0,0,39.463-5.729L499.5,551.393a2.322,2.322,0,0,0,2.686.222L531.3,534.271a2.322,2.322,0,0,0,1.085-2.467l-5.752-27.645a123.065,123.065,0,0,0,23.833-31.971l28.156-2.366a2.321,2.321,0,0,0,2.055-1.743L589,435.227a2.319,2.319,0,0,0-.978-2.512L564.4,417.225a123.061,123.061,0,0,0-5.727-39.463l18.225-21.569a2.323,2.323,0,0,0,.221-2.686l-17.343-29.118A2.32,2.32,0,0,0,557.3,323.3l-27.644,5.751a123.086,123.086,0,0,0-31.972-23.832l-2.366-28.155a2.32,2.32,0,0,0-1.743-2.056l-32.853-8.326a2.322,2.322,0,0,0-2.512.977l-15.491,23.63a123.087,123.087,0,0,0-39.463,5.728L381.693,278.8a2.321,2.321,0,0,0-2.686-.22l-29.118,17.342a2.323,2.323,0,0,0-1.085,2.467l5.751,27.645A123.1,123.1,0,0,0,330.723,358l-28.155,2.366a2.322,2.322,0,0,0-2.057,1.743Z" transform="translate(-292.115 -266.615)"/>
      <g id="Group_5" data-name="Group 5" transform="translate(115.626 115.64)">
        <path id="Path_20" data-name="Path 20" class="cls-1" d="M454.841,462.2h-.032a32.888,32.888,0,1,1,.032,0Zm0-60.188a27.333,27.333,0,0,0-.025,54.665h.026a27.333,27.333,0,0,0,.025-54.665Z" transform="translate(-421.986 -396.502)"/>
      </g>
      <g id="Group_6" data-name="Group 6" transform="translate(69.032 64.078)">
        <path id="Path_21" data-name="Path 21" class="cls-1" d="M449.951,507.63a84.623,84.623,0,0,1-80.3-57.609l5.234-1.762A79.116,79.116,0,0,0,465,500.656l.178-.034.183-.036a79.057,79.057,0,0,0,61.045-58.065,79.533,79.533,0,0,0,2.454-19.566A79.048,79.048,0,0,0,380.247,385.6l-4.863-2.618A84.558,84.558,0,1,1,449.951,507.63Z" transform="translate(-369.651 -338.588)"/>
      </g>
    </g>
  </g>
</svg>
