<svg id="Laptop" xmlns="http://www.w3.org/2000/svg" width="1418" height="783" viewBox="0 0 1418 783">
  <defs>
    <style>
      .cls-1, .cls-2 {
        stroke: #fff;
        stroke-width: 2px;
      }

      .cls-2, .cls-4 {
        fill: none;
      }

      .cls-3, .cls-5 {
        stroke: none;
      }

      .cls-5 {
        fill: #fff;
      }
    </style>
  </defs>
  <g id="laptop-2" data-name="laptop" transform="translate(236.251 0)">
    <g id="Rectangle_10" data-name="Rectangle 10" class="cls-1" transform="translate(-0.251)">
      <rect class="cls-3" width="944" height="532"/>
      <rect class="cls-4" x="1" y="1" width="942" height="530"/>
    </g>
    <g id="Rectangle_11" data-name="Rectangle 11" class="cls-1" transform="translate(19.749 20)">
      <rect class="cls-3" width="906" height="492"/>
      <rect class="cls-4" x="1" y="1" width="904" height="490"/>
    </g>
  </g>
  <g id="Keyboard" transform="translate(0 528.433)">
    <g id="Path_3" data-name="Path 3" transform="translate(240)">
      <path class="cls-3" d="M 1174.599731445313 233.2032623291016 L -237.571533203125 233.2032623291016 L -3.41688346862793 0.9999948143959045 L 940.445068359375 0.9999948143959045 L 1174.599731445313 233.2032623291016 Z"/>
      <path class="cls-5" d="M -3.00494384765625 2 L -235.142822265625 232.2032623291016 L 1172.170776367188 232.2032623291016 L 940.032958984375 2 L -3.00494384765625 2 M -3.82861328125 0 L 940.8566284179688 0 L 1177.028076171875 234.2032623291016 L -240.0001220703125 234.2032623291016 L -3.82861328125 0 Z"/>
    </g>
    <g id="Rectangle_12" data-name="Rectangle 12" class="cls-1" transform="translate(0 234.566)">
      <rect class="cls-3" width="1418" height="20"/>
      <rect class="cls-4" x="1" y="1" width="1416" height="18"/>
    </g>
    <g id="Path_4" data-name="Path 4" transform="translate(328.429 7.722)">
      <path class="cls-3" d="M 942.7864990234375 108.3795623779297 L -181.6690063476563 108.3795623779297 L -86.14270782470703 8.261844635009766 L 845.8821411132813 8.261844635009766 L 942.7864990234375 108.3795623779297 Z"/>
      <path class="cls-5" d="M -85.71466064453125 9.2618408203125 L -179.3326416015625 107.3795623779297 L 940.4267578125 107.3795623779297 L 845.458251953125 9.2618408203125 L -85.71466064453125 9.2618408203125 M -86.57073974609375 7.2618408203125 L 846.3059692382813 7.2618408203125 L 945.1461181640625 109.3795623779297 L -184.00537109375 109.3795623779297 L -86.57073974609375 7.2618408203125 Z"/>
    </g>
    <g id="Path_5" data-name="Path 5" transform="translate(653.247 123.682)">
      <path class="cls-3" d="M 292.8597717285156 83.46919250488281 L -182.33642578125 83.46919250488281 L -142.1123962402344 8.261780738830566 L 252.0554809570313 8.261780738830566 L 292.8597717285156 83.46919250488281 Z"/>
      <path class="cls-5" d="M -141.5131988525391 9.261795043945313 L -180.6675720214844 82.46917724609375 L 291.1794738769531 82.46917724609375 L 251.4603271484375 9.261795043945313 L -141.5131988525391 9.261795043945313 M -142.7116394042969 7.261795043945313 L 252.6506195068359 7.261795043945313 L 294.5399780273438 84.46917724609375 L -184.00537109375 84.46917724609375 L -142.7116394042969 7.261795043945313 Z"/>
    </g>
  </g>
  <g id="Rectangle_53" data-name="Rectangle 53" class="cls-2" transform="translate(702 450)">
    <rect class="cls-3" width="15" height="35" rx="7.5"/>
    <rect class="cls-4" x="1" y="1" width="13" height="33" rx="6.5"/>
  </g>
</svg>
