<svg xmlns="http://www.w3.org/2000/svg" width="463" height="285" viewBox="0 0 463 285">
  <g id="Stats" transform="translate(-1136 -101)">
    <g id="Rectangle_31" data-name="Rectangle 31" transform="translate(1136 101)" stroke="#fff" stroke-width="3">
      <rect width="463" height="285" rx="10" stroke="none"/>
      <rect x="1.5" y="1.5" width="460" height="282" rx="8.5" fill="none"/>
    </g>
    <g id="Rectangle_32" data-name="Rectangle 32" transform="translate(1136 101)" stroke="#fff" stroke-width="3">
      <path d="M10,0H453a10,10,0,0,1,10,10V20a5,5,0,0,1-5,5H5a5,5,0,0,1-5-5V10A10,10,0,0,1,10,0Z" stroke="none"/>
      <path d="M10,1.5H453a8.5,8.5,0,0,1,8.5,8.5V20a3.5,3.5,0,0,1-3.5,3.5H5A3.5,3.5,0,0,1,1.5,20V10A8.5,8.5,0,0,1,10,1.5Z" fill="none"/>
    </g>
    <line id="Line_1" data-name="Line 1" x2="171" transform="translate(1184 152)" fill="none" stroke="#fff" stroke-linecap="round" stroke-width="3"/>
    <line id="Line_2" data-name="Line 2" x2="171" transform="translate(1184 165)" fill="none" stroke="#fff" stroke-linecap="round" stroke-width="3"/>
    <line id="Line_3" data-name="Line 3" x2="81" transform="translate(1184 178)" fill="none" stroke="#fff" stroke-linecap="round" stroke-width="3"/>
    <line id="Line_5" data-name="Line 5" y2="90" transform="translate(1184 272)" fill="none" stroke="#fff" stroke-linecap="round" stroke-width="3"/>
    <line id="Line_6" data-name="Line 6" y2="110" transform="translate(1237 252)" fill="none" stroke="#fff" stroke-linecap="round" stroke-width="3"/>
    <line id="Line_7" data-name="Line 7" y2="66" transform="translate(1289 296)" fill="none" stroke="#fff" stroke-linecap="round" stroke-width="3"/>
    <line id="Line_8" data-name="Line 8" y2="83" transform="translate(1341 279)" fill="none" stroke="#fff" stroke-linecap="round" stroke-width="3"/>
    <line id="Line_9" data-name="Line 9" y2="152" transform="translate(1394 210)" fill="none" stroke="#fff" stroke-linecap="round" stroke-width="3"/>
    <line id="Line_10" data-name="Line 10" y2="116" transform="translate(1446 246)" fill="none" stroke="#fff" stroke-linecap="round" stroke-width="3"/>
    <line id="Line_11" data-name="Line 11" y2="58" transform="translate(1499 304)" fill="none" stroke="#fff" stroke-linecap="round" stroke-width="3"/>
    <line id="Line_12" data-name="Line 12" y2="139" transform="translate(1551 223)" fill="none" stroke="#fff" stroke-linecap="round" stroke-width="3"/>
    <path id="Path_43" data-name="Path 43" d="M1155.32,311.672s6.726-28.186,28.186-28.186S1215.14,337.2,1237.22,337.2s31.742-45.679,51.58-45.679,30.187-19.452,52.991-19.452,27.462-61.71,50.977-61.71,26.151,38.9,51.648,38.9,35.549,55,52.319,55,29.505-80.491,54.333-80.491,36.294,64.9,36.294,64.9" transform="translate(0.934 5.286)" fill="none" stroke="#fff" stroke-width="2"/>
  </g>
</svg>
